<?xml version="1.0" encoding="utf-8"?>
<svg width="200" height="200" viewBox="0 0 200 200"
		 xmlns="http://www.w3.org/2000/svg" xmlns:xlink="http://www.w3.org/1999/xlink" xmlns:ev="http://www.w3.org/2001/xml-events">
<rect x="0" y="0" width="200" height="200" fill="transparent"/>
<defs>
<rect id="p" width="8" height="8"/>
</defs>
<g fill="#ffffff">
<use xlink:href="#p" x="0" y="0"/>
<use xlink:href="#p" x="0" y="8"/>
<use xlink:href="#p" x="0" y="16"/>
<use xlink:href="#p" x="0" y="24"/>
<use xlink:href="#p" x="0" y="32"/>
<use xlink:href="#p" x="0" y="40"/>
<use xlink:href="#p" x="0" y="48"/>
<use xlink:href="#p" x="0" y="64"/>
<use xlink:href="#p" x="0" y="72"/>
<use xlink:href="#p" x="0" y="80"/>
<use xlink:href="#p" x="0" y="88"/>
<use xlink:href="#p" x="0" y="96"/>
<use xlink:href="#p" x="0" y="144"/>
<use xlink:href="#p" x="0" y="152"/>
<use xlink:href="#p" x="0" y="160"/>
<use xlink:href="#p" x="0" y="168"/>
<use xlink:href="#p" x="0" y="176"/>
<use xlink:href="#p" x="0" y="184"/>
<use xlink:href="#p" x="0" y="192"/>
<use xlink:href="#p" x="8" y="0"/>
<use xlink:href="#p" x="8" y="48"/>
<use xlink:href="#p" x="8" y="64"/>
<use xlink:href="#p" x="8" y="80"/>
<use xlink:href="#p" x="8" y="96"/>
<use xlink:href="#p" x="8" y="104"/>
<use xlink:href="#p" x="8" y="112"/>
<use xlink:href="#p" x="8" y="120"/>
<use xlink:href="#p" x="8" y="128"/>
<use xlink:href="#p" x="8" y="144"/>
<use xlink:href="#p" x="8" y="192"/>
<use xlink:href="#p" x="16" y="0"/>
<use xlink:href="#p" x="16" y="16"/>
<use xlink:href="#p" x="16" y="24"/>
<use xlink:href="#p" x="16" y="32"/>
<use xlink:href="#p" x="16" y="48"/>
<use xlink:href="#p" x="16" y="64"/>
<use xlink:href="#p" x="16" y="72"/>
<use xlink:href="#p" x="16" y="96"/>
<use xlink:href="#p" x="16" y="104"/>
<use xlink:href="#p" x="16" y="112"/>
<use xlink:href="#p" x="16" y="120"/>
<use xlink:href="#p" x="16" y="144"/>
<use xlink:href="#p" x="16" y="160"/>
<use xlink:href="#p" x="16" y="168"/>
<use xlink:href="#p" x="16" y="176"/>
<use xlink:href="#p" x="16" y="192"/>
<use xlink:href="#p" x="24" y="0"/>
<use xlink:href="#p" x="24" y="16"/>
<use xlink:href="#p" x="24" y="24"/>
<use xlink:href="#p" x="24" y="32"/>
<use xlink:href="#p" x="24" y="48"/>
<use xlink:href="#p" x="24" y="64"/>
<use xlink:href="#p" x="24" y="72"/>
<use xlink:href="#p" x="24" y="104"/>
<use xlink:href="#p" x="24" y="120"/>
<use xlink:href="#p" x="24" y="128"/>
<use xlink:href="#p" x="24" y="144"/>
<use xlink:href="#p" x="24" y="160"/>
<use xlink:href="#p" x="24" y="168"/>
<use xlink:href="#p" x="24" y="176"/>
<use xlink:href="#p" x="24" y="192"/>
<use xlink:href="#p" x="32" y="0"/>
<use xlink:href="#p" x="32" y="16"/>
<use xlink:href="#p" x="32" y="24"/>
<use xlink:href="#p" x="32" y="32"/>
<use xlink:href="#p" x="32" y="48"/>
<use xlink:href="#p" x="32" y="64"/>
<use xlink:href="#p" x="32" y="88"/>
<use xlink:href="#p" x="32" y="96"/>
<use xlink:href="#p" x="32" y="104"/>
<use xlink:href="#p" x="32" y="112"/>
<use xlink:href="#p" x="32" y="128"/>
<use xlink:href="#p" x="32" y="144"/>
<use xlink:href="#p" x="32" y="160"/>
<use xlink:href="#p" x="32" y="168"/>
<use xlink:href="#p" x="32" y="176"/>
<use xlink:href="#p" x="32" y="192"/>
<use xlink:href="#p" x="40" y="0"/>
<use xlink:href="#p" x="40" y="48"/>
<use xlink:href="#p" x="40" y="72"/>
<use xlink:href="#p" x="40" y="80"/>
<use xlink:href="#p" x="40" y="112"/>
<use xlink:href="#p" x="40" y="128"/>
<use xlink:href="#p" x="40" y="144"/>
<use xlink:href="#p" x="40" y="192"/>
<use xlink:href="#p" x="48" y="0"/>
<use xlink:href="#p" x="48" y="8"/>
<use xlink:href="#p" x="48" y="16"/>
<use xlink:href="#p" x="48" y="24"/>
<use xlink:href="#p" x="48" y="32"/>
<use xlink:href="#p" x="48" y="40"/>
<use xlink:href="#p" x="48" y="48"/>
<use xlink:href="#p" x="48" y="64"/>
<use xlink:href="#p" x="48" y="80"/>
<use xlink:href="#p" x="48" y="96"/>
<use xlink:href="#p" x="48" y="112"/>
<use xlink:href="#p" x="48" y="128"/>
<use xlink:href="#p" x="48" y="144"/>
<use xlink:href="#p" x="48" y="152"/>
<use xlink:href="#p" x="48" y="160"/>
<use xlink:href="#p" x="48" y="168"/>
<use xlink:href="#p" x="48" y="176"/>
<use xlink:href="#p" x="48" y="184"/>
<use xlink:href="#p" x="48" y="192"/>
<use xlink:href="#p" x="56" y="64"/>
<use xlink:href="#p" x="56" y="96"/>
<use xlink:href="#p" x="56" y="104"/>
<use xlink:href="#p" x="56" y="112"/>
<use xlink:href="#p" x="64" y="8"/>
<use xlink:href="#p" x="64" y="24"/>
<use xlink:href="#p" x="64" y="40"/>
<use xlink:href="#p" x="64" y="48"/>
<use xlink:href="#p" x="64" y="64"/>
<use xlink:href="#p" x="64" y="72"/>
<use xlink:href="#p" x="64" y="80"/>
<use xlink:href="#p" x="64" y="104"/>
<use xlink:href="#p" x="64" y="120"/>
<use xlink:href="#p" x="64" y="136"/>
<use xlink:href="#p" x="64" y="144"/>
<use xlink:href="#p" x="64" y="160"/>
<use xlink:href="#p" x="64" y="168"/>
<use xlink:href="#p" x="64" y="176"/>
<use xlink:href="#p" x="64" y="184"/>
<use xlink:href="#p" x="64" y="192"/>
<use xlink:href="#p" x="72" y="24"/>
<use xlink:href="#p" x="72" y="32"/>
<use xlink:href="#p" x="72" y="40"/>
<use xlink:href="#p" x="72" y="56"/>
<use xlink:href="#p" x="72" y="64"/>
<use xlink:href="#p" x="72" y="96"/>
<use xlink:href="#p" x="72" y="104"/>
<use xlink:href="#p" x="72" y="112"/>
<use xlink:href="#p" x="72" y="120"/>
<use xlink:href="#p" x="72" y="128"/>
<use xlink:href="#p" x="72" y="144"/>
<use xlink:href="#p" x="72" y="152"/>
<use xlink:href="#p" x="72" y="160"/>
<use xlink:href="#p" x="72" y="168"/>
<use xlink:href="#p" x="72" y="192"/>
<use xlink:href="#p" x="80" y="0"/>
<use xlink:href="#p" x="80" y="8"/>
<use xlink:href="#p" x="80" y="24"/>
<use xlink:href="#p" x="80" y="48"/>
<use xlink:href="#p" x="80" y="56"/>
<use xlink:href="#p" x="80" y="72"/>
<use xlink:href="#p" x="80" y="80"/>
<use xlink:href="#p" x="80" y="96"/>
<use xlink:href="#p" x="80" y="112"/>
<use xlink:href="#p" x="80" y="144"/>
<use xlink:href="#p" x="80" y="160"/>
<use xlink:href="#p" x="80" y="184"/>
<use xlink:href="#p" x="88" y="40"/>
<use xlink:href="#p" x="88" y="56"/>
<use xlink:href="#p" x="88" y="64"/>
<use xlink:href="#p" x="88" y="112"/>
<use xlink:href="#p" x="88" y="120"/>
<use xlink:href="#p" x="88" y="128"/>
<use xlink:href="#p" x="88" y="176"/>
<use xlink:href="#p" x="88" y="184"/>
<use xlink:href="#p" x="88" y="192"/>
<use xlink:href="#p" x="96" y="0"/>
<use xlink:href="#p" x="96" y="16"/>
<use xlink:href="#p" x="96" y="24"/>
<use xlink:href="#p" x="96" y="40"/>
<use xlink:href="#p" x="96" y="48"/>
<use xlink:href="#p" x="96" y="72"/>
<use xlink:href="#p" x="96" y="88"/>
<use xlink:href="#p" x="96" y="96"/>
<use xlink:href="#p" x="96" y="112"/>
<use xlink:href="#p" x="96" y="136"/>
<use xlink:href="#p" x="96" y="152"/>
<use xlink:href="#p" x="96" y="160"/>
<use xlink:href="#p" x="96" y="176"/>
<use xlink:href="#p" x="104" y="0"/>
<use xlink:href="#p" x="104" y="8"/>
<use xlink:href="#p" x="104" y="24"/>
<use xlink:href="#p" x="104" y="40"/>
<use xlink:href="#p" x="104" y="64"/>
<use xlink:href="#p" x="104" y="72"/>
<use xlink:href="#p" x="104" y="80"/>
<use xlink:href="#p" x="104" y="96"/>
<use xlink:href="#p" x="104" y="104"/>
<use xlink:href="#p" x="104" y="136"/>
<use xlink:href="#p" x="104" y="144"/>
<use xlink:href="#p" x="104" y="152"/>
<use xlink:href="#p" x="112" y="8"/>
<use xlink:href="#p" x="112" y="24"/>
<use xlink:href="#p" x="112" y="48"/>
<use xlink:href="#p" x="112" y="56"/>
<use xlink:href="#p" x="112" y="64"/>
<use xlink:href="#p" x="112" y="80"/>
<use xlink:href="#p" x="112" y="88"/>
<use xlink:href="#p" x="112" y="96"/>
<use xlink:href="#p" x="112" y="112"/>
<use xlink:href="#p" x="112" y="120"/>
<use xlink:href="#p" x="112" y="144"/>
<use xlink:href="#p" x="112" y="160"/>
<use xlink:href="#p" x="112" y="184"/>
<use xlink:href="#p" x="120" y="8"/>
<use xlink:href="#p" x="120" y="16"/>
<use xlink:href="#p" x="120" y="24"/>
<use xlink:href="#p" x="120" y="40"/>
<use xlink:href="#p" x="120" y="80"/>
<use xlink:href="#p" x="120" y="112"/>
<use xlink:href="#p" x="120" y="120"/>
<use xlink:href="#p" x="120" y="136"/>
<use xlink:href="#p" x="120" y="160"/>
<use xlink:href="#p" x="120" y="168"/>
<use xlink:href="#p" x="120" y="184"/>
<use xlink:href="#p" x="128" y="8"/>
<use xlink:href="#p" x="128" y="32"/>
<use xlink:href="#p" x="128" y="48"/>
<use xlink:href="#p" x="128" y="72"/>
<use xlink:href="#p" x="128" y="88"/>
<use xlink:href="#p" x="128" y="104"/>
<use xlink:href="#p" x="128" y="112"/>
<use xlink:href="#p" x="128" y="128"/>
<use xlink:href="#p" x="128" y="136"/>
<use xlink:href="#p" x="128" y="144"/>
<use xlink:href="#p" x="128" y="152"/>
<use xlink:href="#p" x="128" y="160"/>
<use xlink:href="#p" x="128" y="168"/>
<use xlink:href="#p" x="128" y="176"/>
<use xlink:href="#p" x="128" y="184"/>
<use xlink:href="#p" x="136" y="64"/>
<use xlink:href="#p" x="136" y="88"/>
<use xlink:href="#p" x="136" y="96"/>
<use xlink:href="#p" x="136" y="120"/>
<use xlink:href="#p" x="136" y="128"/>
<use xlink:href="#p" x="136" y="160"/>
<use xlink:href="#p" x="136" y="168"/>
<use xlink:href="#p" x="136" y="176"/>
<use xlink:href="#p" x="136" y="192"/>
<use xlink:href="#p" x="144" y="0"/>
<use xlink:href="#p" x="144" y="8"/>
<use xlink:href="#p" x="144" y="16"/>
<use xlink:href="#p" x="144" y="24"/>
<use xlink:href="#p" x="144" y="32"/>
<use xlink:href="#p" x="144" y="40"/>
<use xlink:href="#p" x="144" y="48"/>
<use xlink:href="#p" x="144" y="80"/>
<use xlink:href="#p" x="144" y="88"/>
<use xlink:href="#p" x="144" y="96"/>
<use xlink:href="#p" x="144" y="112"/>
<use xlink:href="#p" x="144" y="128"/>
<use xlink:href="#p" x="144" y="144"/>
<use xlink:href="#p" x="144" y="160"/>
<use xlink:href="#p" x="144" y="168"/>
<use xlink:href="#p" x="144" y="184"/>
<use xlink:href="#p" x="152" y="0"/>
<use xlink:href="#p" x="152" y="48"/>
<use xlink:href="#p" x="152" y="64"/>
<use xlink:href="#p" x="152" y="72"/>
<use xlink:href="#p" x="152" y="80"/>
<use xlink:href="#p" x="152" y="88"/>
<use xlink:href="#p" x="152" y="104"/>
<use xlink:href="#p" x="152" y="112"/>
<use xlink:href="#p" x="152" y="120"/>
<use xlink:href="#p" x="152" y="128"/>
<use xlink:href="#p" x="152" y="160"/>
<use xlink:href="#p" x="152" y="176"/>
<use xlink:href="#p" x="152" y="184"/>
<use xlink:href="#p" x="152" y="192"/>
<use xlink:href="#p" x="160" y="0"/>
<use xlink:href="#p" x="160" y="16"/>
<use xlink:href="#p" x="160" y="24"/>
<use xlink:href="#p" x="160" y="32"/>
<use xlink:href="#p" x="160" y="48"/>
<use xlink:href="#p" x="160" y="88"/>
<use xlink:href="#p" x="160" y="96"/>
<use xlink:href="#p" x="160" y="128"/>
<use xlink:href="#p" x="160" y="136"/>
<use xlink:href="#p" x="160" y="144"/>
<use xlink:href="#p" x="160" y="152"/>
<use xlink:href="#p" x="160" y="160"/>
<use xlink:href="#p" x="160" y="168"/>
<use xlink:href="#p" x="160" y="184"/>
<use xlink:href="#p" x="160" y="192"/>
<use xlink:href="#p" x="168" y="0"/>
<use xlink:href="#p" x="168" y="16"/>
<use xlink:href="#p" x="168" y="24"/>
<use xlink:href="#p" x="168" y="32"/>
<use xlink:href="#p" x="168" y="48"/>
<use xlink:href="#p" x="168" y="64"/>
<use xlink:href="#p" x="168" y="80"/>
<use xlink:href="#p" x="168" y="104"/>
<use xlink:href="#p" x="168" y="112"/>
<use xlink:href="#p" x="168" y="120"/>
<use xlink:href="#p" x="168" y="136"/>
<use xlink:href="#p" x="168" y="144"/>
<use xlink:href="#p" x="168" y="152"/>
<use xlink:href="#p" x="168" y="160"/>
<use xlink:href="#p" x="168" y="184"/>
<use xlink:href="#p" x="168" y="192"/>
<use xlink:href="#p" x="176" y="0"/>
<use xlink:href="#p" x="176" y="16"/>
<use xlink:href="#p" x="176" y="24"/>
<use xlink:href="#p" x="176" y="32"/>
<use xlink:href="#p" x="176" y="48"/>
<use xlink:href="#p" x="176" y="96"/>
<use xlink:href="#p" x="176" y="128"/>
<use xlink:href="#p" x="176" y="136"/>
<use xlink:href="#p" x="176" y="144"/>
<use xlink:href="#p" x="176" y="160"/>
<use xlink:href="#p" x="176" y="168"/>
<use xlink:href="#p" x="176" y="176"/>
<use xlink:href="#p" x="176" y="192"/>
<use xlink:href="#p" x="184" y="0"/>
<use xlink:href="#p" x="184" y="48"/>
<use xlink:href="#p" x="184" y="64"/>
<use xlink:href="#p" x="184" y="72"/>
<use xlink:href="#p" x="184" y="80"/>
<use xlink:href="#p" x="184" y="96"/>
<use xlink:href="#p" x="184" y="104"/>
<use xlink:href="#p" x="184" y="112"/>
<use xlink:href="#p" x="184" y="144"/>
<use xlink:href="#p" x="184" y="152"/>
<use xlink:href="#p" x="184" y="160"/>
<use xlink:href="#p" x="184" y="168"/>
<use xlink:href="#p" x="184" y="192"/>
<use xlink:href="#p" x="192" y="0"/>
<use xlink:href="#p" x="192" y="8"/>
<use xlink:href="#p" x="192" y="16"/>
<use xlink:href="#p" x="192" y="24"/>
<use xlink:href="#p" x="192" y="32"/>
<use xlink:href="#p" x="192" y="40"/>
<use xlink:href="#p" x="192" y="48"/>
<use xlink:href="#p" x="192" y="80"/>
<use xlink:href="#p" x="192" y="88"/>
<use xlink:href="#p" x="192" y="96"/>
<use xlink:href="#p" x="192" y="112"/>
<use xlink:href="#p" x="192" y="120"/>
<use xlink:href="#p" x="192" y="144"/>
<use xlink:href="#p" x="192" y="152"/>
<use xlink:href="#p" x="192" y="160"/>
<use xlink:href="#p" x="192" y="168"/>
<use xlink:href="#p" x="192" y="176"/>
<use xlink:href="#p" x="192" y="184"/>
<use xlink:href="#p" x="192" y="192"/>
</g>
</svg>
